{
  "asset": {
    "generator": "Khronos glTF Blender I/O v1.6.16",
    "version": "2.0"
  },
  "scene": 0,
  "scenes": [
    {
      "name": "Scene",
      "nodes": [
        0
      ]
    }
  ],
  "nodes": [
    {
      "mesh": 0,
      "name": "sphere_gltf"
    }
  ],
  "materials": [
    {
      "doubleSided": true,
      "name": "rocks_ground_01",
      "normalTexture": {
        "index": 0
      },
      "pbrMetallicRoughness": {
        "baseColorTexture": {
          "index": 1
        },
        "metallicFactor": 0,
        "metallicRoughnessTexture": {
          "index": 2
        }
      }
    }
  ],
  "meshes": [
    {
      "name": "Sphere.001",
      "primitives": [
        {
          "attributes": {
            "POSITION": 0,
            "NORMAL": 1,
            "TEXCOORD_0": 2
          },
          "indices": 3,
          "material": 0
        }
      ]
    }
  ],
  "textures": [
    {
      "sampler": 0,
      "source": 0
    },
    {
      "sampler": 0,
      "source": 1
    },
    {
      "sampler": 0,
      "source": 2
    }
  ],
  "images": [
    {
      "mimeType": "image/jpeg",
      "name": "rocks_ground_01_nor_gl_4k",
      "uri": "textures/rocks_ground_01_nor_gl_4k.jpg"
    },
    {
      "mimeType": "image/jpeg",
      "name": "rocks_ground_01_diff_4k",
      "uri": "textures/rocks_ground_01_diff_4k.jpg"
    },
    {
      "mimeType": "image/png",
      "name": "rocks_ground_01_rough_4k",
      "uri": "textures/rocks_ground_01_arm_4k.png"
    }
  ],
  "accessors": [
    {
      "bufferView": 0,
      "componentType": 5126,
      "count": 53908,
      "max": [
        1.0127283334732056,
        1.0218448638916016,
        1.0037519931793213
      ],
      "min": [
        -1.0127055644989014,
        -1.0311801433563232,
        -1.0036433935165405
      ],
      "type": "VEC3"
    },
    {
      "bufferView": 1,
      "componentType": 5126,
      "count": 53908,
      "type": "VEC3"
    },
    {
      "bufferView": 2,
      "componentType": 5126,
      "count": 53908,
      "type": "VEC2"
    },
    {
      "bufferView": 3,
      "componentType": 5123,
      "count": 322170,
      "type": "SCALAR"
    }
  ],
  "bufferViews": [
    {
      "buffer": 0,
      "byteLength": 646896,
      "byteOffset": 0
    },
    {
      "buffer": 0,
      "byteLength": 646896,
      "byteOffset": 646896
    },
    {
      "buffer": 0,
      "byteLength": 431264,
      "byteOffset": 1293792
    },
    {
      "buffer": 0,
      "byteLength": 644340,
      "byteOffset": 1725056
    }
  ],
  "samplers": [
    {
      "magFilter": 9729,
      "minFilter": 9987
    }
  ],
  "buffers": [
    {
      "byteLength": 2369396,
      "uri": "rocks_ground_01.bin"
    }
  ]
}